<?xml version="1.0" encoding="UTF-8"?>
<svg version="1.1" xmlns="http://www.w3.org/2000/svg" width="320" height="320">
<path d="M0 0 C105.6 0 211.2 0 320 0 C320 105.6 320 211.2 320 320 C214.4 320 108.8 320 0 320 C0 214.4 0 108.8 0 0 Z M60 50 C60 53.3 60 56.6 60 60 C56.7 60 53.4 60 50 60 C50 69.9 50 79.8 50 90 C53.3 90 56.6 90 60 90 C60 93.3 60 96.6 60 100 C69.9 100 79.8 100 90 100 C90 93.4 90 86.8 90 80 C93.3 80 96.6 80 100 80 C100 73.4 100 66.8 100 60 C96.7 60 93.4 60 90 60 C90 56.7 90 53.4 90 50 C80.1 50 70.2 50 60 50 Z M50 120 C50 172.8 50 225.6 50 280 C63.2 280 76.4 280 90 280 C90 276.7 90 273.4 90 270 C93.3 270 96.6 270 100 270 C100 223.8 100 177.6 100 130 C96.7 130 93.4 130 90 130 C90 126.7 90 123.4 90 120 C76.8 120 63.6 120 50 120 Z M130 120 C130 172.8 130 225.6 130 280 C143.2 280 156.4 280 170 280 C170 250.3 170 220.6 170 190 C173.3 190 176.6 190 180 190 C180 183.4 180 176.8 180 170 C183.3 170 186.6 170 190 170 C190 166.7 190 163.4 190 160 C199.9 160 209.8 160 220 160 C220 163.3 220 166.6 220 170 C223.3 170 226.6 170 230 170 C230 206.3 230 242.6 230 280 C243.2 280 256.4 280 270 280 C270 276.7 270 273.4 270 270 C273.3 270 276.6 270 280 270 C280 233.7 280 197.4 280 160 C276.7 160 273.4 160 270 160 C270 153.4 270 146.8 270 140 C266.7 140 263.4 140 260 140 C260 136.7 260 133.4 260 130 C253.4 130 246.8 130 240 130 C240 126.7 240 123.4 240 120 C226.8 120 213.6 120 200 120 C200 123.3 200 126.6 200 130 C193.4 130 186.8 130 180 130 C180 133.3 180 136.6 180 140 C176.7 140 173.4 140 170 140 C170 133.4 170 126.8 170 120 C156.8 120 143.6 120 130 120 Z " fill="#000000" transform="translate(0,0)"/>
</svg>
