<svg xmlns="http://www.w3.org/2000/svg" width="570" height="570" viewBox="0 0 570 570" version="1.1"><path d="" stroke="none" fill="#080404" fill-rule="evenodd"/><path d="M 420 15 L 420 20 415 20 L 410 20 410 25 L 410 30 390 30 L 370 30 370 35 L 370 40 365 40 L 360 40 360 45 L 360 50 355 50 L 350 50 350 45 L 350 40 335 40 L 320 40 320 45 L 320 50 315 50 L 310 50 310 60 L 310 70 305 70 L 300 70 300 75 L 300 80 270 80 L 240 80 240 85 L 240 90 235 90 L 230 90 230 100 L 230 110 225 110 L 220 110 220 120 L 220 130 205 130 L 190 130 190 125 L 190 120 185 120 L 180 120 180 115 L 180 110 185 110 L 190 110 190 100 L 190 90 185 90 L 180 90 180 85 L 180 80 175 80 L 170 80 170 70 L 170 60 165 60 L 160 60 160 65 L 160 70 155 70 L 150 70 150 75 L 150 80 145 80 L 140 80 140 90 L 140 100 135 100 L 130 100 130 105 L 130 110 120 110 L 110 110 110 120 L 110 130 115 130 L 120 130 120 140 L 120 150 125 150 L 130 150 130 160 L 130 170 115 170 L 100 170 100 175 L 100 180 95 180 L 90 180 90 185 L 90 190 75 190 L 60 190 60 185 L 60 180 55 180 L 50 180 50 195 L 50 210 55 210 L 60 210 60 215 L 60 220 65 220 L 70 220 70 225 L 70 230 65 230 L 60 230 60 235 L 60 240 55 240 L 50 240 50 250 L 50 260 55 260 L 60 260 60 265 L 60 270 65 270 L 70 270 70 300 L 70 330 65 330 L 60 330 60 335 L 60 340 55 340 L 50 340 50 345 L 50 350 40 350 L 30 350 30 355 L 30 360 35 360 L 40 360 40 370 L 40 380 45 380 L 50 380 50 385 L 50 390 55 390 L 60 390 60 395 L 60 400 70 400 L 80 400 80 405 L 80 410 85 410 L 90 410 90 425 L 90 440 85 440 L 80 440 80 450 L 80 460 95 460 L 110 460 110 465 L 110 470 125 470 L 140 470 140 475 L 140 480 150 480 L 160 480 160 490 L 160 500 165 500 L 170 500 170 510 L 170 520 175 520 L 180 520 180 515 L 180 510 190 510 L 200 510 200 505 L 200 500 210 500 L 220 500 220 505 L 220 510 230 510 L 240 510 240 515 L 240 520 245 520 L 250 520 250 515 L 250 510 260 510 L 270 510 270 500 L 270 490 285 490 L 300 490 300 495 L 300 500 310 500 L 320 500 320 505 L 320 510 325 510 L 330 510 330 515 L 330 520 340 520 L 350 520 350 515 L 350 510 355 510 L 360 510 360 500 L 360 490 365 490 L 370 490 370 485 L 370 480 375 480 L 380 480 380 475 L 380 470 385 470 L 390 470 390 465 L 390 460 405 460 L 420 460 420 435 L 420 410 430 410 L 440 410 440 405 L 440 400 445 400 L 450 400 450 395 L 450 390 455 390 L 460 390 460 385 L 460 380 465 380 L 470 380 470 375 L 470 370 475 370 L 480 370 480 365 L 480 360 485 360 L 490 360 490 355 L 490 350 500 350 L 510 350 510 340 L 510 330 505 330 L 500 330 500 320 L 500 310 495 310 L 490 310 490 315 L 490 320 485 320 L 480 320 480 330 L 480 340 460 340 L 440 340 440 330 L 440 320 435 320 L 430 320 430 305 L 430 290 435 290 L 440 290 440 285 L 440 280 445 280 L 450 280 450 260 L 450 240 445 240 L 440 240 440 235 L 440 230 445 230 L 450 230 450 220 L 450 210 445 210 L 440 210 440 195 L 440 180 445 180 L 450 180 450 175 L 450 170 455 170 L 460 170 460 165 L 460 160 465 160 L 470 160 470 155 L 470 150 465 150 L 460 150 460 145 L 460 140 465 140 L 470 140 470 135 L 470 130 480 130 L 490 130 490 120 L 490 110 480 110 L 470 110 470 115 L 470 120 460 120 L 450 120 450 130 L 450 140 445 140 L 440 140 440 145 L 440 150 430 150 L 420 150 420 145 L 420 140 415 140 L 410 140 410 145 L 410 150 405 150 L 400 150 400 145 L 400 140 395 140 L 390 140 390 145 L 390 150 385 150 L 380 150 380 155 L 380 160 375 160 L 370 160 370 155 L 370 150 365 150 L 360 150 360 140 L 360 130 355 130 L 350 130 350 135 L 350 140 345 140 L 340 140 340 145 L 340 150 335 150 L 330 150 330 145 L 330 140 320 140 L 310 140 310 135 L 310 130 305 130 L 300 130 300 115 L 300 100 305 100 L 310 100 310 95 L 310 90 360 90 L 410 90 410 80 L 410 70 415 70 L 420 70 420 65 L 420 60 425 60 L 430 60 430 55 L 430 50 435 50 L 440 50 440 30 L 440 10 430 10 L 420 10 420 15 M 220 165 L 220 170 205 170 L 190 170 190 175 L 190 180 180 180 L 170 180 170 185 L 170 190 165 190 L 160 190 160 195 L 160 200 155 200 L 150 200 150 205 L 150 210 145 210 L 140 210 140 215 L 140 220 135 220 L 130 220 130 230 L 130 240 125 240 L 120 240 120 250 L 120 260 115 260 L 110 260 110 315 L 110 370 115 370 L 120 370 120 380 L 120 390 125 390 L 130 390 130 395 L 130 400 135 400 L 140 400 140 405 L 140 410 145 410 L 150 410 150 415 L 150 420 155 420 L 160 420 160 425 L 160 430 165 430 L 170 430 170 435 L 170 440 180 440 L 190 440 190 445 L 190 450 200 450 L 210 450 210 455 L 210 460 260 460 L 310 460 310 455 L 310 450 320 450 L 330 450 330 445 L 330 440 335 440 L 340 440 340 435 L 340 430 350 430 L 360 430 360 425 L 360 420 365 420 L 370 420 370 410 L 370 400 375 400 L 380 400 380 395 L 380 390 385 390 L 390 390 390 380 L 390 370 395 370 L 400 370 400 355 L 400 340 405 340 L 410 340 410 310 L 410 280 405 280 L 400 280 400 265 L 400 250 395 250 L 390 250 390 240 L 390 230 385 230 L 380 230 380 225 L 380 220 375 220 L 370 220 370 215 L 370 210 365 210 L 360 210 360 205 L 360 200 355 200 L 350 200 350 195 L 350 190 345 190 L 340 190 340 185 L 340 180 330 180 L 320 180 320 175 L 320 170 305 170 L 290 170 290 165 L 290 160 255 160 L 220 160 220 165 M 190 230 L 190 240 195 240 L 200 240 200 255 L 200 270 205 270 L 210 270 210 290 L 210 310 215 310 L 220 310 220 340 L 220 370 225 370 L 230 370 230 380 L 230 390 205 390 L 180 390 180 400 L 180 410 190 410 L 200 410 200 415 L 200 420 220 420 L 240 420 240 415 L 240 410 260 410 L 280 410 280 405 L 280 400 295 400 L 310 400 310 395 L 310 390 315 390 L 320 390 320 385 L 320 380 325 380 L 330 380 330 375 L 330 370 335 370 L 340 370 340 365 L 340 360 345 360 L 350 360 350 350 L 350 340 355 340 L 360 340 360 295 L 360 250 350 250 L 340 250 340 275 L 340 300 325 300 L 310 300 310 295 L 310 290 300 290 L 290 290 290 285 L 290 280 285 280 L 280 280 280 275 L 280 270 270 270 L 260 270 260 265 L 260 260 255 260 L 250 260 250 255 L 250 250 240 250 L 230 250 230 245 L 230 240 225 240 L 220 240 220 235 L 220 230 215 230 L 210 230 210 225 L 210 220 200 220 L 190 220 190 230 M 230 290 L 230 310 235 310 L 240 310 240 335 L 240 360 245 360 L 250 360 250 375 L 250 390 265 390 L 280 390 280 385 L 280 380 290 380 L 300 380 300 375 L 300 370 305 370 L 310 370 310 365 L 310 360 315 360 L 320 360 320 355 L 320 350 325 350 L 330 350 330 340 L 330 330 325 330 L 320 330 320 325 L 320 320 310 320 L 300 320 300 315 L 300 310 290 310 L 280 310 280 305 L 280 300 275 300 L 270 300 270 295 L 270 290 260 290 L 250 290 250 285 L 250 280 245 280 L 240 280 240 275 L 240 270 235 270 L 230 270 230 290" stroke="none" fill="#040404" fill-rule="evenodd"/></svg>