<?xml version="1.0" encoding="UTF-8"?>
<svg version="1.1" xmlns="http://www.w3.org/2000/svg" width="320" height="320">
<path d="M0 0 C33 0 66 0 100 0 C100 3.3 100 6.6 100 10 C103.3 10 106.6 10 110 10 C110 13.3 110 16.6 110 20 C113.3 20 116.6 20 120 20 C120 23.3 120 26.6 120 30 C123.3 30 126.6 30 130 30 C130 36.6 130 43.2 130 50 C133.3 50 136.6 50 140 50 C140 53.3 140 56.6 140 60 C143.3 60 146.6 60 150 60 C150 63.3 150 66.6 150 70 C153.3 70 156.6 70 160 70 C160 76.6 160 83.2 160 90 C169.9 90 179.8 90 190 90 C190 83.4 190 76.8 190 70 C193.3 70 196.6 70 200 70 C200 66.7 200 63.4 200 60 C203.3 60 206.6 60 210 60 C210 56.7 210 53.4 210 50 C213.3 50 216.6 50 220 50 C220 46.7 220 43.4 220 40 C223.3 40 226.6 40 230 40 C230 36.7 230 33.4 230 30 C233.3 30 236.6 30 240 30 C240 26.7 240 23.4 240 20 C243.3 20 246.6 20 250 20 C250 16.7 250 13.4 250 10 C253.3 10 256.6 10 260 10 C260 6.7 260 3.4 260 0 C273.2 0 286.4 0 300 0 C300 6.6 300 13.2 300 20 C296.7 20 293.4 20 290 20 C290 23.3 290 26.6 290 30 C286.7 30 283.4 30 280 30 C280 36.6 280 43.2 280 50 C276.7 50 273.4 50 270 50 C270 53.3 270 56.6 270 60 C266.7 60 263.4 60 260 60 C260 63.3 260 66.6 260 70 C256.7 70 253.4 70 250 70 C250 73.3 250 76.6 250 80 C246.7 80 243.4 80 240 80 C240 83.3 240 86.6 240 90 C236.7 90 233.4 90 230 90 C230 93.3 230 96.6 230 100 C226.7 100 223.4 100 220 100 C220 103.3 220 106.6 220 110 C216.7 110 213.4 110 210 110 C210 116.6 210 123.2 210 130 C206.7 130 203.4 130 200 130 C200 133.3 200 136.6 200 140 C203.3 140 206.6 140 210 140 C210 143.3 210 146.6 210 150 C213.3 150 216.6 150 220 150 C220 153.3 220 156.6 220 160 C223.3 160 226.6 160 230 160 C230 166.6 230 173.2 230 180 C233.3 180 236.6 180 240 180 C240 183.3 240 186.6 240 190 C243.3 190 246.6 190 250 190 C250 193.3 250 196.6 250 200 C253.3 200 256.6 200 260 200 C260 206.6 260 213.2 260 220 C263.3 220 266.6 220 270 220 C270 223.3 270 226.6 270 230 C273.3 230 276.6 230 280 230 C280 233.3 280 236.6 280 240 C283.3 240 286.6 240 290 240 C290 246.6 290 253.2 290 260 C293.3 260 296.6 260 300 260 C300 263.3 300 266.6 300 270 C303.3 270 306.6 270 310 270 C310 273.3 310 276.6 310 280 C313.3 280 316.6 280 320 280 C320 286.6 320 293.2 320 300 C287 300 254 300 220 300 C220 296.7 220 293.4 220 290 C216.7 290 213.4 290 210 290 C210 286.7 210 283.4 210 280 C206.7 280 203.4 280 200 280 C200 273.4 200 266.8 200 260 C196.7 260 193.4 260 190 260 C190 256.7 190 253.4 190 250 C186.7 250 183.4 250 180 250 C180 246.7 180 243.4 180 240 C176.7 240 173.4 240 170 240 C170 233.4 170 226.8 170 220 C166.7 220 163.4 220 160 220 C160 216.7 160 213.4 160 210 C156.7 210 153.4 210 150 210 C150 206.7 150 203.4 150 200 C146.7 200 143.4 200 140 200 C140 203.3 140 206.6 140 210 C136.7 210 133.4 210 130 210 C130 216.6 130 223.2 130 230 C126.7 230 123.4 230 120 230 C120 233.3 120 236.6 120 240 C116.7 240 113.4 240 110 240 C110 243.3 110 246.6 110 250 C106.7 250 103.4 250 100 250 C100 253.3 100 256.6 100 260 C96.7 260 93.4 260 90 260 C90 263.3 90 266.6 90 270 C86.7 270 83.4 270 80 270 C80 273.3 80 276.6 80 280 C76.7 280 73.4 280 70 280 C70 283.3 70 286.6 70 290 C66.7 290 63.4 290 60 290 C60 293.3 60 296.6 60 300 C43.5 300 27 300 10 300 C10 296.7 10 293.4 10 290 C13.3 290 16.6 290 20 290 C20 286.7 20 283.4 20 280 C23.3 280 26.6 280 30 280 C30 276.7 30 273.4 30 270 C33.3 270 36.6 270 40 270 C40 263.4 40 256.8 40 250 C43.3 250 46.6 250 50 250 C50 246.7 50 243.4 50 240 C53.3 240 56.6 240 60 240 C60 236.7 60 233.4 60 230 C63.3 230 66.6 230 70 230 C70 226.7 70 223.4 70 220 C73.3 220 76.6 220 80 220 C80 216.7 80 213.4 80 210 C83.3 210 86.6 210 90 210 C90 206.7 90 203.4 90 200 C93.3 200 96.6 200 100 200 C100 196.7 100 193.4 100 190 C103.3 190 106.6 190 110 190 C110 183.4 110 176.8 110 170 C113.3 170 116.6 170 120 170 C120 166.7 120 163.4 120 160 C116.7 160 113.4 160 110 160 C110 156.7 110 153.4 110 150 C106.7 150 103.4 150 100 150 C100 143.4 100 136.8 100 130 C96.7 130 93.4 130 90 130 C90 126.7 90 123.4 90 120 C86.7 120 83.4 120 80 120 C80 116.7 80 113.4 80 110 C76.7 110 73.4 110 70 110 C70 103.4 70 96.8 70 90 C66.7 90 63.4 90 60 90 C60 86.7 60 83.4 60 80 C56.7 80 53.4 80 50 80 C50 76.7 50 73.4 50 70 C46.7 70 43.4 70 40 70 C40 63.4 40 56.8 40 50 C36.7 50 33.4 50 30 50 C30 46.7 30 43.4 30 40 C26.7 40 23.4 40 20 40 C20 36.7 20 33.4 20 30 C16.7 30 13.4 30 10 30 C10 23.4 10 16.8 10 10 C6.7 10 3.4 10 0 10 C0 6.7 0 3.4 0 0 Z M70 40 C70 43.3 70 46.6 70 50 C73.3 50 76.6 50 80 50 C80 56.6 80 63.2 80 70 C83.3 70 86.6 70 90 70 C90 73.3 90 76.6 90 80 C93.3 80 96.6 80 100 80 C100 83.3 100 86.6 100 90 C103.3 90 106.6 90 110 90 C110 96.6 110 103.2 110 110 C113.3 110 116.6 110 120 110 C120 113.3 120 116.6 120 120 C123.3 120 126.6 120 130 120 C130 123.3 130 126.6 130 130 C133.3 130 136.6 130 140 130 C140 136.6 140 143.2 140 150 C143.3 150 146.6 150 150 150 C150 153.3 150 156.6 150 160 C153.3 160 156.6 160 160 160 C160 163.3 160 166.6 160 170 C163.3 170 166.6 170 170 170 C170 173.3 170 176.6 170 180 C173.3 180 176.6 180 180 180 C180 186.6 180 193.2 180 200 C183.3 200 186.6 200 190 200 C190 203.3 190 206.6 190 210 C193.3 210 196.6 210 200 210 C200 213.3 200 216.6 200 220 C203.3 220 206.6 220 210 220 C210 226.6 210 233.2 210 240 C213.3 240 216.6 240 220 240 C220 243.3 220 246.6 220 250 C223.3 250 226.6 250 230 250 C230 253.3 230 256.6 230 260 C233.3 260 236.6 260 240 260 C240 263.3 240 266.6 240 270 C246.6 270 253.2 270 260 270 C260 266.7 260 263.4 260 260 C256.7 260 253.4 260 250 260 C250 253.4 250 246.8 250 240 C246.7 240 243.4 240 240 240 C240 236.7 240 233.4 240 230 C236.7 230 233.4 230 230 230 C230 226.7 230 223.4 230 220 C226.7 220 223.4 220 220 220 C220 213.4 220 206.8 220 200 C216.7 200 213.4 200 210 200 C210 196.7 210 193.4 210 190 C206.7 190 203.4 190 200 190 C200 186.7 200 183.4 200 180 C196.7 180 193.4 180 190 180 C190 173.4 190 166.8 190 160 C186.7 160 183.4 160 180 160 C180 156.7 180 153.4 180 150 C176.7 150 173.4 150 170 150 C170 146.7 170 143.4 170 140 C166.7 140 163.4 140 160 140 C160 133.4 160 126.8 160 120 C156.7 120 153.4 120 150 120 C150 116.7 150 113.4 150 110 C146.7 110 143.4 110 140 110 C140 106.7 140 103.4 140 100 C136.7 100 133.4 100 130 100 C130 93.4 130 86.8 130 80 C126.7 80 123.4 80 120 80 C120 76.7 120 73.4 120 70 C116.7 70 113.4 70 110 70 C110 66.7 110 63.4 110 60 C106.7 60 103.4 60 100 60 C100 56.7 100 53.4 100 50 C96.7 50 93.4 50 90 50 C90 46.7 90 43.4 90 40 C83.4 40 76.8 40 70 40 Z " fill="#000000" transform="translate(0,10)"/>
</svg>
